<svg xmlns="http://www.w3.org/2000/svg" viewBox="0 0 32 32">
  <defs>
    <linearGradient id="cardGradient" x1="0%" y1="0%" x2="100%" y2="100%">
      <stop offset="0%" style="stop-color:#c9a227"/>
      <stop offset="100%" style="stop-color:#8b5a20"/>
    </linearGradient>
    <linearGradient id="bgGradient" x1="0%" y1="0%" x2="0%" y2="100%">
      <stop offset="0%" style="stop-color:#1a1a1a"/>
      <stop offset="100%" style="stop-color:#050505"/>
    </linearGradient>
  </defs>

  <!-- Background circle -->
  <circle cx="16" cy="16" r="15" fill="url(#bgGradient)" stroke="url(#cardGradient)" stroke-width="1"/>

  <!-- Card shape -->
  <rect x="8" y="5" width="16" height="22" rx="2" ry="2" fill="#f5f5f5" stroke="#d4af37" stroke-width="0.5"/>

  <!-- Spade symbol -->
  <path d="M16 9 C16 9 12 13 12 16 C12 18 13.5 19 15 19 C14 20 13 21 13 22 L19 22 C19 21 18 20 17 19 C18.5 19 20 18 20 16 C20 13 16 9 16 9 Z" fill="url(#cardGradient)"/>

  <!-- Crown accent -->
  <path d="M11 4 L13 6 L16 3 L19 6 L21 4 L20 7 L12 7 Z" fill="url(#cardGradient)" opacity="0.8"/>
</svg>
